<svg xmlns="http://www.w3.org/2000/svg" viewBox="0 0 32 32" fill="none">
  <defs>
    <linearGradient id="f" x1="16" y1="2" x2="16" y2="30" gradientUnits="userSpaceOnUse">
      <stop stop-color="#ff8c5a"/>
      <stop offset="1" stop-color="#ff6a2b"/>
    </linearGradient>
  </defs>
  <path fill="url(#f)" d="M16 2c1.6 5-3.2 7-3.2 11.5 0 2 1 3.4 2.2 4.3-.5-2.1.3-4 1.7-5.2.2 3 2.4 4 3.8 6.2 1.7 2.7.6 6.6-2.3 8.2 4.6-.5 8.1-4 8.1-8.8C26 11.4 19.2 9 16 2Z"/>
  <path fill="#0e0f13" d="M14.4 17.6c-1.6 1.1-2.5 2.8-2.5 4.6 0 3 2.2 5.2 5 5.6-2.3-1.4-3.1-4-2-6.2-.6-.2-1.1-.6-1.4-1.1-.4-.7-.4-1.6-.1-2.9Z" opacity=".0"/>
</svg>
